<svg width="114" height="16" viewBox="0 0 114 16" fill="none" xmlns="http://www.w3.org/2000/svg">
<defs>
    <style>

@keyframes blink {
  0%, 40%,100% {
    -webkit-opacity: 0;
    -ms-opacity: 0;
    -o-opacity: 0;
    opacity: 0;
  }
  
  40.1%, 99%{
        -webkit-opacity: 1;
    -ms-opacity: 1;
    -o-opacity: 1;
    opacity: 1;
  }
}

      
    #bar{
  
  -webkit-animation-name: blink;
  -o-animation-name: blink;
  animation-name: blink;
  -webkit-animation-duration: 1.5s;
  -o-animation-duration: 1.5s;
  animation-duration: 1.5s;
  -webkit-animation-iteration-count: infinite;
  -o-animation-iteration-count: infinite;
  animation-iteration-count: infinite;
    }
    </style>
</defs>
<path d="M5.23366 4.39977H1.6152V7.25516H4.75366V8.13516H1.6152V11.1444H5.46751V11.9998H0.544434V3.52593H5.35674L5.23366 4.39977Z" fill="black"/>
<path d="M11.4965 2.78131L12.5303 2.91054V11.9998H11.6257L11.5272 11.1444C11.2893 11.4808 11.0144 11.7311 10.7026 11.8952C10.3908 12.0593 10.0524 12.1413 9.68725 12.1413C8.86673 12.1413 8.2493 11.8398 7.83494 11.2367C7.42468 10.6336 7.21955 9.81106 7.21955 8.769C7.21955 8.1167 7.32007 7.53413 7.52109 7.02131C7.72622 6.50849 8.01955 6.10849 8.40109 5.82131C8.78673 5.53003 9.24007 5.38439 9.76109 5.38439C10.1303 5.38439 10.4565 5.44798 10.7396 5.57516C11.0267 5.70234 11.279 5.89311 11.4965 6.14747V2.78131ZM10.0319 6.21516C9.48622 6.21516 9.06776 6.43054 8.77648 6.86131C8.4893 7.28798 8.34571 7.92388 8.34571 8.769C8.34571 9.60593 8.47699 10.2377 8.73955 10.6644C9.00622 11.0911 9.39391 11.3044 9.90263 11.3044C10.5139 11.3044 11.0452 10.9639 11.4965 10.2829V7.04593C11.3201 6.78336 11.1047 6.58029 10.8503 6.4367C10.6001 6.289 10.3272 6.21516 10.0319 6.21516Z" fill="black"/>
<path d="M17.4701 5.38439C18.069 5.38439 18.5757 5.52183 18.9901 5.7967C19.4044 6.06747 19.7162 6.45721 19.9254 6.96593C20.1388 7.47054 20.2454 8.06747 20.2454 8.7567C20.2454 9.42542 20.1367 10.0141 19.9193 10.5229C19.706 11.0316 19.3901 11.4295 18.9716 11.7167C18.5531 11.9998 18.0485 12.1413 17.4578 12.1413C16.8588 12.1413 16.3501 12.0039 15.9316 11.729C15.5172 11.45 15.2034 11.0582 14.9901 10.5536C14.7767 10.049 14.6701 9.45413 14.6701 8.769C14.6701 8.09618 14.7767 7.50541 14.9901 6.9967C15.2075 6.48798 15.5254 6.09208 15.9439 5.80901C16.3665 5.52593 16.8752 5.38439 17.4701 5.38439ZM17.4701 6.22747C16.908 6.22747 16.4854 6.4367 16.2024 6.85516C15.9193 7.26952 15.7778 7.90747 15.7778 8.769C15.7778 9.61824 15.9172 10.2521 16.1962 10.6705C16.4752 11.0849 16.8957 11.2921 17.4578 11.2921C18.0198 11.2921 18.4403 11.0849 18.7193 10.6705C18.9983 10.2521 19.1378 9.61413 19.1378 8.7567C19.1378 7.90336 18.9983 7.26952 18.7193 6.85516C18.4403 6.4367 18.0239 6.22747 17.4701 6.22747Z" fill="black"/>
<path d="M27.0252 10.5844C27.0252 10.8387 27.0662 11.0275 27.1483 11.1505C27.2303 11.2695 27.3657 11.3577 27.5544 11.4152L27.3021 12.1413C26.6785 12.0593 26.2826 11.7557 26.1144 11.2305C25.8847 11.53 25.5934 11.7577 25.2406 11.9136C24.8918 12.0654 24.5062 12.1413 24.0836 12.1413C23.657 12.1413 23.2857 12.0593 22.9698 11.8952C22.6539 11.7311 22.4118 11.4993 22.2436 11.1998C22.0754 10.8962 21.9913 10.5434 21.9913 10.1413C21.9913 9.47259 22.2518 8.95977 22.7729 8.60285C23.2939 8.24593 24.0467 8.06747 25.0313 8.06747H25.9852V7.52593C25.9852 7.07465 25.8539 6.74849 25.5913 6.54747C25.3288 6.34234 24.9452 6.23977 24.4406 6.23977C23.9524 6.23977 23.3903 6.35054 22.7544 6.57208L22.4836 5.79054C23.2057 5.51977 23.9113 5.38439 24.6006 5.38439C25.3924 5.38439 25.9934 5.57106 26.4036 5.94439C26.818 6.31362 27.0252 6.82439 27.0252 7.4767V10.5844ZM24.3483 11.3536C24.6683 11.3536 24.9718 11.2736 25.259 11.1136C25.5503 10.9495 25.7924 10.7239 25.9852 10.4367V8.769H25.0498C24.3647 8.769 23.8683 8.88593 23.5606 9.11977C23.2529 9.35362 23.099 9.69003 23.099 10.129C23.099 10.9454 23.5154 11.3536 24.3483 11.3536Z" fill="black"/>
<path d="M34.1434 5.37824C34.3116 5.37824 34.4654 5.39054 34.6049 5.41516C34.7444 5.43567 34.8962 5.47054 35.0603 5.51977L34.9126 7.71054H34.0634V6.33208H34.008C33.5075 6.33208 33.0808 6.50849 32.728 6.86131C32.3752 7.21413 32.09 7.74747 31.8726 8.46131V11.2059H33.1895V11.9998H29.8295V11.2059H30.8388V6.31362H29.8295V5.51977H31.6265L31.8172 7.05208C32.0798 6.49003 32.3916 6.07157 32.7526 5.7967C33.1177 5.51772 33.5813 5.37824 34.1434 5.37824Z" fill="black"/>
<path d="M41.0277 2.78131L42.0616 2.91054V11.9998H41.157L41.0585 11.1444C40.8205 11.4808 40.5457 11.7311 40.2339 11.8952C39.9221 12.0593 39.5836 12.1413 39.2185 12.1413C38.398 12.1413 37.7805 11.8398 37.3662 11.2367C36.9559 10.6336 36.7508 9.81106 36.7508 8.769C36.7508 8.1167 36.8513 7.53413 37.0523 7.02131C37.2575 6.50849 37.5508 6.10849 37.9323 5.82131C38.318 5.53003 38.7713 5.38439 39.2923 5.38439C39.6616 5.38439 39.9877 5.44798 40.2708 5.57516C40.558 5.70234 40.8103 5.89311 41.0277 6.14747V2.78131ZM39.5631 6.21516C39.0175 6.21516 38.599 6.43054 38.3077 6.86131C38.0205 7.28798 37.877 7.92388 37.877 8.769C37.877 9.60593 38.0082 10.2377 38.2708 10.6644C38.5375 11.0911 38.9252 11.3044 39.4339 11.3044C40.0452 11.3044 40.5764 10.9639 41.0277 10.2829V7.04593C40.8513 6.78336 40.6359 6.58029 40.3816 6.4367C40.1313 6.289 39.8585 6.21516 39.5631 6.21516Z" fill="black"/>
<path d="M47.0013 5.38439C47.6003 5.38439 48.1069 5.52183 48.5213 5.7967C48.9357 6.06747 49.2475 6.45721 49.4567 6.96593C49.67 7.47054 49.7767 8.06747 49.7767 8.7567C49.7767 9.42542 49.668 10.0141 49.4505 10.5229C49.2372 11.0316 48.9213 11.4295 48.5028 11.7167C48.0844 11.9998 47.5798 12.1413 46.989 12.1413C46.39 12.1413 45.8813 12.0039 45.4628 11.729C45.0485 11.45 44.7346 11.0582 44.5213 10.5536C44.308 10.049 44.2013 9.45413 44.2013 8.769C44.2013 8.09618 44.308 7.50541 44.5213 6.9967C44.7387 6.48798 45.0567 6.09208 45.4752 5.80901C45.8977 5.52593 46.4064 5.38439 47.0013 5.38439ZM47.0013 6.22747C46.4393 6.22747 46.0167 6.4367 45.7336 6.85516C45.4505 7.26952 45.309 7.90747 45.309 8.769C45.309 9.61824 45.4485 10.2521 45.7275 10.6705C46.0064 11.0849 46.427 11.2921 46.989 11.2921C47.5511 11.2921 47.9716 11.0849 48.2505 10.6705C48.5295 10.2521 48.669 9.61413 48.669 8.7567C48.669 7.90336 48.5295 7.26952 48.2505 6.85516C47.9716 6.4367 47.5552 6.22747 47.0013 6.22747Z" fill="black"/>
<path d="M59.1454 7.61208L63.8777 4.689L64.3762 5.48285L60.0315 8.14747L64.3762 10.8367L63.8223 11.5936L59.1454 8.67054V7.61208Z" fill="black"/>
<path d="M69.3036 12.1413C68.6267 12.1413 68.0421 11.9793 67.5497 11.6552C67.0574 11.327 66.6759 10.8367 66.4051 10.1844C66.1385 9.52798 66.0051 8.71977 66.0051 7.75977C66.0051 6.82849 66.1692 6.03465 66.4974 5.37824C66.8256 4.71772 67.2585 4.22131 67.7959 3.889C68.3374 3.5567 68.9221 3.39054 69.5497 3.39054C70.079 3.39054 70.5282 3.46644 70.8974 3.61824C71.2667 3.76593 71.6256 3.99977 71.9744 4.31977L71.3282 4.99054C71.0697 4.74849 70.7969 4.57003 70.5097 4.45516C70.2226 4.34029 69.9046 4.28285 69.5559 4.28285C69.1169 4.28285 68.7169 4.39772 68.3559 4.62747C67.9949 4.85311 67.7036 5.22439 67.4821 5.74131C67.2605 6.25824 67.1497 6.93106 67.1497 7.75977C67.1497 8.97003 67.3364 9.85413 67.7097 10.4121C68.0831 10.9659 68.6472 11.2429 69.4021 11.2429C69.9723 11.2429 70.5097 11.1075 71.0144 10.8367V8.25208H69.3467L69.2174 7.36593H72.0728V11.4029C71.638 11.6408 71.2051 11.8234 70.7744 11.9505C70.3477 12.0777 69.8574 12.1413 69.3036 12.1413Z" fill="black"/>
<path d="M78.4403 5.37824C78.6085 5.37824 78.7623 5.39054 78.9018 5.41516C79.0413 5.43567 79.1931 5.47054 79.3572 5.51977L79.2095 7.71054H78.3603V6.33208H78.3049C77.8044 6.33208 77.3777 6.50849 77.0249 6.86131C76.672 7.21413 76.3869 7.74747 76.1695 8.46131V11.2059H77.4864V11.9998H74.1264V11.2059H75.1356V6.31362H74.1264V5.51977H75.9233L76.1141 7.05208C76.3767 6.49003 76.6885 6.07157 77.0495 5.7967C77.4146 5.51772 77.8782 5.37824 78.4403 5.37824Z" fill="black"/>
<path d="M86.0877 10.5844C86.0877 10.8387 86.1287 11.0275 86.2108 11.1505C86.2928 11.2695 86.4282 11.3577 86.6169 11.4152L86.3646 12.1413C85.741 12.0593 85.3451 11.7557 85.1769 11.2305C84.9472 11.53 84.6559 11.7577 84.3031 11.9136C83.9543 12.0654 83.5687 12.1413 83.1461 12.1413C82.7195 12.1413 82.3482 12.0593 82.0323 11.8952C81.7164 11.7311 81.4743 11.4993 81.3061 11.1998C81.1379 10.8962 81.0538 10.5434 81.0538 10.1413C81.0538 9.47259 81.3143 8.95977 81.8354 8.60285C82.3564 8.24593 83.1092 8.06747 84.0938 8.06747H85.0477V7.52593C85.0477 7.07465 84.9164 6.74849 84.6538 6.54747C84.3913 6.34234 84.0077 6.23977 83.5031 6.23977C83.0149 6.23977 82.4528 6.35054 81.8169 6.57208L81.5461 5.79054C82.2682 5.51977 82.9738 5.38439 83.6631 5.38439C84.4549 5.38439 85.0559 5.57106 85.4661 5.94439C85.8805 6.31362 86.0877 6.82439 86.0877 7.4767V10.5844ZM83.4108 11.3536C83.7308 11.3536 84.0343 11.2736 84.3215 11.1136C84.6128 10.9495 84.8549 10.7239 85.0477 10.4367V8.769H84.1123C83.4272 8.769 82.9308 8.88593 82.6231 9.11977C82.3154 9.35362 82.1615 9.69003 82.1615 10.129C82.1615 10.9454 82.5779 11.3536 83.4108 11.3536Z" fill="black"/>
<path d="M91.7597 11.249C92.3382 11.249 92.9002 11.0603 93.4459 10.6829L93.9505 11.3598C93.6674 11.5977 93.3269 11.7885 92.929 11.9321C92.531 12.0716 92.1413 12.1413 91.7597 12.1413C91.1238 12.1413 90.5761 12.0039 90.1166 11.729C89.6613 11.4541 89.3146 11.0644 89.0766 10.5598C88.8387 10.0552 88.7197 9.46439 88.7197 8.78747C88.7197 8.13516 88.8408 7.55259 89.0828 7.03977C89.3249 6.52285 89.6756 6.11875 90.1351 5.82747C90.5946 5.53208 91.1402 5.38439 91.772 5.38439C92.5966 5.38439 93.3187 5.63465 93.9382 6.13516L93.4336 6.82439C92.8756 6.43875 92.3177 6.24593 91.7597 6.24593C91.3782 6.24593 91.0438 6.34029 90.7566 6.52901C90.4695 6.71772 90.2438 7.00285 90.0797 7.38439C89.9197 7.76593 89.8397 8.23362 89.8397 8.78747C89.8397 9.61618 90.012 10.2336 90.3566 10.6398C90.7054 11.0459 91.1731 11.249 91.7597 11.249Z" fill="black"/>
<path d="M98.6687 2.48593C98.8943 2.48593 99.0769 2.55567 99.2164 2.69516C99.3559 2.83054 99.4256 3.0008 99.4256 3.20593C99.4256 3.41926 99.3559 3.59567 99.2164 3.73516C99.0769 3.87465 98.8943 3.94439 98.6687 3.94439C98.4513 3.94439 98.2728 3.87465 98.1333 3.73516C97.9938 3.59157 97.9241 3.41516 97.9241 3.20593C97.9241 3.0008 97.9938 2.83054 98.1333 2.69516C98.2728 2.55567 98.4513 2.48593 98.6687 2.48593ZM96.521 5.51977H99.4933V11.1813H101.321V11.9998H96.4595V11.1813H98.4595V6.33824H96.521V5.51977Z" fill="black"/>
<path d="M103.442 5.47054L103.941 4.689L108.673 7.61208V8.67054L104.002 11.5936L103.442 10.8305L107.787 8.14747L103.442 5.47054Z" fill="black"/>
<path id="bar" d="M112.973 0.922852H113.896V15.6921H112.973V0.922852Z" fill="black"/>
</svg>
